<?xml version="1.0" encoding="UTF-8" standalone="no"?>
<!-- Created with Inkscape (http://www.inkscape.org/) -->

<svg
   version="1.1"
   id="svg1"
   width="570.58453"
   height="601.18542"
   viewBox="0 0 570.58453 601.18543"
   sodipodi:docname="logo.svg"
   inkscape:version="1.3.1 (91b66b0783, 2023-11-16, custom)"
   xmlns:inkscape="http://www.inkscape.org/namespaces/inkscape"
   xmlns:sodipodi="http://sodipodi.sourceforge.net/DTD/sodipodi-0.dtd"
   xmlns="http://www.w3.org/2000/svg"
   xmlns:svg="http://www.w3.org/2000/svg">
  <defs
     id="defs1" />
  <sodipodi:namedview
     id="namedview1"
     pagecolor="#ffffff"
     bordercolor="#000000"
     borderopacity="0.25"
     inkscape:showpageshadow="2"
     inkscape:pageopacity="0.0"
     inkscape:pagecheckerboard="0"
     inkscape:deskcolor="#d1d1d1"
     showgrid="false"
     inkscape:zoom="1.1428114"
     inkscape:cx="323.32543"
     inkscape:cy="364.8896"
     inkscape:window-width="1900"
     inkscape:window-height="1060"
     inkscape:window-x="0"
     inkscape:window-y="0"
     inkscape:window-maximized="1"
     inkscape:current-layer="g1" />
  <g
     inkscape:groupmode="layer"
     inkscape:label="Image"
     id="g1"
     transform="translate(-236.94608,-187.86763)">
    <path
       style="fill:#000000"
       d="m 494.80287,788.19264 c -19.50563,-1.87276 -47.7541,-8.17324 -68.1766,-15.20596 -17.86111,-6.15069 -32.53717,-12.959 -56.65582,-26.28296 -16.28861,-8.99838 -37.81744,-25.54741 -53.50394,-41.12803 -6.22955,-6.1875 -11.76561,-10.96864 -12.03615,-11.25 -47.21861,-49.10804 -67.08335,-90.44173 -67.48428,-127 l 3.11174,-9.41979 c 4.9558,-15.00204 13.77008,-28.10818 24.17759,-35.95019 12.07566,-9.09895 23.31881,-13.00573 40.91675,-14.21777 l 9.91531,-0.6829 0.68478,4.38532 c 0.37662,2.41193 1.37153,7.22776 2.2109,10.70185 0.83937,3.47409 1.28359,6.55907 0.98714,6.85551 -0.29644,0.29645 -4.45395,1.64156 -9.23891,2.98913 -15.69671,4.42064 -27.33125,11.66392 -36.42344,22.67603 -9.65022,11.68799 -16.02081,28.77259 -15.98581,42.87065 0.0226,9.12465 3.49384,23.01998 8.26861,33.09962 2.45291,5.17814 4.90547,9.69021 5.45014,10.02684 0.62595,0.38686 1.19049,-4.437 1.53441,-13.11113 0.96546,-24.35017 7.1284,-39.74018 21.77598,-54.37867 7.25559,-7.25109 10.20822,-9.40824 18.19729,-13.29469 5.24503,-2.55156 11.12724,-4.89735 13.07159,-5.21288 3.44469,-0.55899 3.60463,-0.43662 6.24845,4.7807 1.49229,2.94491 3.77687,7.03923 5.07683,9.0985 1.29996,2.05927 2.36356,4.33222 2.36356,5.051 0,0.71879 -2.98758,3.02518 -6.63906,5.12533 -9.28754,5.34173 -21.07134,17.36881 -25.57944,26.10754 -11.9861,23.23447 -9.71635,49.69335 6.2932,73.36085 5.72996,8.47082 17.33883,21.05895 18.4219,19.97589 0.30189,-0.3019 -0.82285,-3.60628 -2.49944,-7.34307 -9.84331,-21.93888 -10.62417,-50.26454 -1.87194,-67.90476 5.57743,-11.24137 14.8807,-20.92077 25.27312,-26.2949 2.8419,-1.4696 3.07083,-1.43045 4.86371,0.8319 1.03479,1.30575 4.62277,5.23175 7.97329,8.72444 l 6.09185,6.35035 -8.13954,7.64965 c -15.07975,14.17215 -19.31733,29.65961 -13.77201,50.33376 3.01941,11.257 13.43152,28.94903 16.91943,28.74912 0.64071,-0.0367 4.66495,-4.27387 8.94274,-9.41589 l 7.77781,-9.34912 -3.97969,-5.6812 c -7.67908,-10.96226 -8.71866,-19.33832 -3.64324,-29.35419 2.84142,-5.60728 10.21411,-12.53113 15.03906,-14.12351 2.94251,-0.97111 3.86934,-0.75631 8.48863,1.96732 5.7397,3.38425 11.64418,6.02336 13.47605,6.02336 1.66811,0 17.35375,-22.60823 26.18548,-37.742 11.36237,-19.47017 19.32529,-41.84401 20.90958,-58.75071 l 0.71633,-7.64441 -3.87391,0.65171 c -5.63593,0.94814 -13.21463,3.43201 -18.41901,6.0367 -6.3699,3.18802 -14.9168,11.15617 -17.08421,15.92739 -1.97573,4.34924 -2.48873,12.02131 -0.87069,13.02132 2.1378,1.32124 0.97146,4.3143 -2.09819,5.38439 -6.52673,2.27522 -15.04614,2.34653 -23.27182,0.19477 -10.73548,-2.8083 -16.23088,-5.68215 -22.14174,-11.57916 -10.07452,-10.05089 -14.22334,-22.21873 -13.04575,-38.26111 l 0.68197,-9.29059 -3.81385,-4.33275 c -3.94355,-4.48012 -7.3242,-12.19387 -7.31557,-16.69221 0.004,-1.99892 -1.32529,-3.54034 -5.92789,-6.87468 -9.44913,-6.8454 -15.25449,-15.30194 -16.52536,-24.07213 -0.59665,-4.11743 -0.23307,-5.1985 4.53233,-13.47653 7.88533,-13.69768 17.40015,-27.87552 26.50865,-39.5 l 8.2274,-10.5 -0.54045,-6.73071 c -0.66096,-8.23143 0.64911,-13.43163 6.25436,-24.82618 9.28829,-18.88157 24.52089,-37.81833 39.38905,-48.96742 10.70773,-8.02934 27.91645,-16.3311 43.08686,-20.78579 19.46266,-5.71509 23.39279,-6.3244 44.5,-6.89908 20.27213,-0.55195 42.09406,1.26227 50,4.15688 2.2,0.80548 4.61539,1.48427 5.36752,1.50841 0.75214,0.0241 4.97932,-3.21209 9.39372,-7.19162 l 8.0262,-7.2355 16.00675,16.4855 c 8.80371,9.06703 17.76398,18.80944 19.91171,21.64979 2.14772,2.84035 4.44251,5.37309 5.09953,5.6283 0.65701,0.25522 6.09929,4.60234 12.09395,9.66029 33.08831,27.918 51.01818,54.84729 64.94812,97.54713 3.9307,12.04888 6.6525,30.69823 6.6525,45.58186 0,11.97935 -4.55134,45.84064 -8.32249,61.91814 -1.57851,6.72959 -0.70914,10.74092 5.89285,27.19028 7.51294,18.71903 16.75322,34.31889 34.24249,57.80972 26.73632,35.91106 24.49845,33.50198 27.68244,29.80037 1.24642,-1.44904 6.12287,-8.93709 10.83656,-16.64011 13.33099,-21.78523 20.86986,-37.56885 28.73488,-60.16026 l 12.17489,8.86614 c -1.1281,0.12003 -8.35198,16.35952 -9.24162,18.27371 -26.61199,57.25923 -58.99686,82.92994 -109.5,121.96139 l -12,7.82201 c -6.6,4.30211 -14.7,9.40508 -18,11.33995 -47.29768,27.7317 -113.90637,43.41195 -163.98612,38.60374 z m 29.98612,-7.839 c 20.78805,-3.47244 37.5,-24.17491 37.5,-46.45434 0,-5.54111 -2.4564,-14.81932 -5.7116,-21.57361 -3.29064,-6.82783 -13.19667,-16.85862 -19.57459,-19.82112 -14.47963,-6.72568 -30.63394,-6.78158 -43.76816,-0.15144 -6.11447,3.08657 -16.53395,12.71476 -18.93908,17.50076 -0.82138,1.63449 -2.31092,4.4048 -3.31009,6.15624 l -1.81667,3.18444 -4.06563,-1.43444 c -2.2361,-0.78894 -4.62864,-1.43444 -5.31676,-1.43444 -2.28406,0 -5.68819,10.09684 -6.80896,20.19574 -1.1437,10.30544 -0.29811,17.74087 2.93709,25.82642 1.42802,3.56898 1.74596,3.75213 8.9276,5.14261 4.09577,0.79301 7.44685,1.12628 7.44685,0.74061 0,-0.38568 -1.12724,-2.65967 -2.50498,-5.05331 -4.29165,-7.45617 -6.74072,-17.31541 -6.32858,-25.477 0.2011,-3.98226 0.69401,-7.56886 1.09537,-7.97021 0.40136,-0.40136 1.90579,-0.1939 3.34319,0.46103 1.89532,0.86356 2.47177,1.73253 2.09785,3.16241 -1.07003,4.0918 1.2894,16.47304 4.31376,22.6367 3.72457,7.59069 10.69699,15.49622 16.84916,19.10405 8.82193,5.17348 21.90208,7.21863 33.63423,5.2589 z m -17.72405,-13.45229 c -15.16255,-4.34973 -24.67783,-16.1672 -25.58108,-31.77035 -0.41939,-7.24478 -0.21529,-8.32153 2.69983,-14.24299 6.18179,-12.55699 17.8078,-20.03554 31.1053,-20.0088 15.52318,0.0312 27.37045,8.90954 32.47041,24.33323 7.44501,22.51581 -17.70772,48.2832 -40.69446,41.68891 z m -70.35726,-9.82566 c 0.25123,-1.2375 0.68988,-6.3 0.97479,-11.25 0.89769,-15.59698 6.34445,-28.92918 18.45229,-45.16623 8.40574,-11.2724 15.41436,-17.43519 25.21972,-22.17609 11.12352,-5.37823 20.01449,-7.37321 32.37497,-7.26437 12.44877,0.10961 15.2501,0.61044 24.55954,4.39079 11.63094,4.72306 19.04881,10.19862 25.94036,19.14806 11.60776,15.07397 16.82275,37.53934 12.53528,54.00005 -0.8384,3.21882 -1.34362,6.03314 -1.12272,6.25404 0.923,0.923 22.09145,-4.141 34.15029,-8.16957 36.97532,-12.35256 64.31775,-28.13741 97.89795,-56.51668 8.77358,-7.41473 26.64147,-26.65816 26.56288,-28.60781 -0.0198,-0.49071 -1.1385,-2.2417 -2.48605,-3.89111 l -2.45008,-2.99891 -12.26395,12.06116 c -18.25238,17.95056 -28.74164,26.56806 -45.76396,37.59759 -22.88208,14.82634 -34.05792,20.37546 -58,28.79866 -13.03907,4.58735 -27.72296,8.67045 -28.44546,7.90974 -0.19293,-0.20313 -0.50912,-2.54907 -0.70266,-5.2132 l -0.35188,-4.84388 9.06508,-2.35259 c 34.92227,-9.06314 71.38414,-27.98113 98.93492,-51.33172 10.84076,-9.18806 25.70188,-23.41301 29.09396,-27.84853 l 2.46297,-3.2206 -2.27846,-3.51702 c -1.25316,-1.93436 -2.67324,-3.52259 -3.15574,-3.5294 -0.48249,-0.007 -6.56786,5.50012 -13.52303,12.23762 -27.8379,26.96668 -53.75656,44.22466 -84.0997,55.99789 -11.8113,4.58283 -31.51099,10.75211 -34.33351,10.75211 -1.62039,0 -1.91842,-0.82728 -5.22369,-14.5 -3.06508,-12.67913 -10.45675,-39.9463 -11.60192,-42.79841 -0.98751,-2.4594 -1.5002,-2.72292 -4.23225,-2.17534 -5.10074,1.02234 -6.60863,1.56643 -6.60863,2.38459 0,0.75079 2.99935,9.61983 4.56134,13.48781 0.55793,1.38161 -0.93232,0.74485 -5.47233,-2.3382 -13.35947,-9.07225 -25.69804,-12.57734 -44.08901,-12.52462 -24.78845,0.0711 -41.12057,7.28876 -58.82696,25.99763 l -8.67304,9.16407 -4.9708,-3.42568 c -2.73394,-1.88412 -7.06923,-4.96607 -9.63398,-6.84876 -2.56474,-1.8827 -5.34619,-3.42309 -6.181,-3.42309 -1.81924,0 -5.72036,5.82042 -5.05801,7.54648 0.25692,0.66953 5.15571,4.53298 10.88618,8.58543 5.73048,4.05245 10.42772,7.87549 10.43833,8.49565 0.0106,0.62015 -0.61803,1.65647 -1.39695,2.30292 -1.97387,1.63816 -8.23628,17.62673 -11.11004,28.36504 -1.31921,4.92946 -2.52797,9.08364 -2.68614,9.23152 -0.49199,0.45997 -13.68767,-5.02712 -14.82527,-6.16472 -1.21753,-1.21753 4.45922,-14.35609 10.49782,-24.29671 1.94692,-3.20498 3.53986,-6.2989 3.53986,-6.87538 0,-0.57648 -3.2625,-3.08197 -7.25,-5.56774 -3.9875,-2.48578 -10.85,-7.24061 -15.25,-10.56629 -4.4,-3.32569 -8.45,-6.0186 -9,-5.98424 -2.29801,0.14352 -31.06216,38.20943 -30.07705,39.80337 3.2574,5.27059 43.58793,24.88766 62.92427,30.60684 10.08492,2.98286 9.5233,2.96792 10.07147,0.26783 z m -47.41869,-27.7851 c -10.83663,-6.45371 -11.52078,-7.12329 -10.06244,-9.84824 1.54375,-2.88452 2.76974,-2.68479 8.49166,1.38334 2.70755,1.925 5.40611,3.49443 5.9968,3.48762 0.90802,-0.0105 5.57398,-6.16479 5.57398,-7.35199 0,-0.21582 -2.475,-2.30186 -5.5,-4.63563 -3.025,-2.33377 -5.48789,-4.52599 -5.4731,-4.87161 0.0148,-0.34561 1.3053,-2.17004 2.86779,-4.05428 l 2.84089,-3.42588 8.38221,5.81049 c 4.61022,3.19577 8.74275,6.13296 9.18341,6.52708 0.44065,0.39413 -0.53046,2.92105 -2.15804,5.6154 -1.62758,2.69434 -4.30331,7.3738 -5.94608,10.3988 -1.64276,3.025 -3.59664,5.61858 -4.34196,5.76351 -0.74532,0.14494 -5.18012,-2.01444 -9.85512,-4.79861 z m 219.5,-28.4805 c 14.11352,-5.31859 13.54177,-4.74684 10.94991,-10.95004 -1.19665,-2.864 -1.93769,-3.54672 -3.25,-2.99424 -2.03365,0.85616 -10.05294,3.90697 -15.94991,6.0679 -4.59108,1.68238 -5.03311,2.84709 -3.14077,8.27548 1.23721,3.54906 0.88071,3.56155 11.39077,-0.3991 z m 33.77852,-14.60292 c 3.42181,-1.71518 6.40439,-3.2856 6.62795,-3.4898 0.90486,-0.82653 -3.31553,-8.39168 -4.68148,-8.39168 -2.0686,0 -13.22499,6.2585 -13.22499,7.41894 0,0.91151 4.19442,7.5599 4.77852,7.57423 0.15318,0.004 3.07818,-1.3965 6.5,-3.11169 z M 459.21579,667.87728 c 4.44026,-6.77876 8.0732,-12.75397 8.0732,-13.27824 0,-0.52428 -1.78583,-1.54261 -3.96851,-2.26296 -4.56347,-1.50608 -4.49087,-1.56388 -12.23414,9.73961 -2.3548,3.4375 -4.57756,6.25 -4.93945,6.25 -0.79245,0 -16.08969,-12.11723 -20.47247,-16.21662 l -3.11457,-2.91318 -3.15743,3.98658 -3.15742,3.98658 5.88306,5.17848 c 10.52218,9.26201 26.37308,20.04698 27.76529,18.89155 0.68708,-0.57023 4.88218,-6.58303 9.32244,-13.3618 z m 154.13794,7.5415 c 9.86478,-3.84613 26.945,-12.66168 26.92259,-13.89546 -0.0418,-2.30178 -12.98779,-25.15149 -14.26636,-25.18016 -2.09802,-0.0471 -22.72097,11.46283 -22.72097,12.6808 0,2.26953 2.94707,7.3018 4.27568,7.30094 0.67338,-4.3e-4 4.07722,-1.35043 7.56411,-3 3.48688,-1.64957 6.64705,-2.99921 7.02259,-2.99921 0.84789,0 4.61317,6.87099 4.04831,7.38746 -1.15909,1.05978 -14.18412,7.18149 -19.68668,9.25264 l -6.30217,2.37213 -2.97078,-6.6213 c -1.63393,-3.64172 -3.24013,-7.69448 -3.56933,-9.00612 -0.36011,-1.43481 -1.33332,-2.38481 -2.44309,-2.38481 -2.43081,0 -6.93864,2.08367 -6.93864,3.20728 0,0.96841 6.60597,21.93576 8.0343,25.50085 0.87062,2.17306 0.9687,2.18356 6.17518,0.66112 2.90979,-0.85086 9.59465,-3.22513 14.85526,-5.27616 z m -200.81259,1.6631 2.13389,-3.74381 -2.88011,-3.00619 c -1.58406,-1.65341 -3.13342,-2.99808 -3.44302,-2.98816 -0.3096,0.01 -2.02892,1.78382 -3.82071,3.94202 l -3.25779,3.92401 3.25779,3.06944 c 1.79179,1.68819 3.84691,2.95178 4.56693,2.80797 0.72001,-0.14381 2.26937,-1.94619 3.44302,-4.00528 z m 262.09122,-12.64313 c 5.03615,-3.78782 11.17838,-8.68349 13.64941,-10.87927 l 4.49279,-3.99233 -1.72661,-3.62073 c -0.94963,-1.9914 -2.42094,-3.62073 -3.26957,-3.62073 -0.84863,0 -5.52962,3.31809 -10.40219,7.37353 -4.87257,4.05544 -10.92017,8.7915 -13.43911,10.52458 -4.26179,2.93219 -4.50879,3.33807 -3.55615,5.8437 1.23575,3.25028 2.81051,5.25819 4.12388,5.25819 0.53401,0 5.09141,-3.09912 10.12755,-6.88694 z M 447.03899,650.82734 c 1.2375,-1.91048 2.25,-3.64253 2.25,-3.84901 0,-0.20647 -3.41075,-2.98783 -7.57945,-6.18079 l -7.57946,-5.8054 -2.38458,2.91678 c -1.31152,1.60422 -2.40077,3.41307 -2.42055,4.01967 -0.042,1.28832 12.91106,12.403 14.43318,12.38472 0.56697,-0.007 2.04336,-1.5755 3.28086,-3.48597 z m 107.25,-2.36773 c 35.59443,-6.9189 66.83519,-20.83169 90.99599,-40.52423 10.35285,-8.43821 25.3069,-23.04027 30.16396,-29.45396 4.01432,-5.30087 4.03711,-5.38025 2.80644,-9.77576 -0.6824,-2.43732 -1.69118,-4.70988 -2.24172,-5.05013 -0.55053,-0.34025 -5.77062,4.25021 -11.60019,10.20102 -21.71668,22.16836 -42.02721,37.05062 -64.02893,46.91631 -8.66706,3.88635 -28.26255,10.70733 -38.59555,13.43469 -16.73829,4.41801 -49.54641,5.45022 -66.67649,2.09778 -5.67793,-1.11119 -11.89851,-2.50846 -13.82351,-3.10503 -6.97629,-2.16201 -20.64433,-8.32539 -27,-12.17521 -3.575,-2.16549 -6.8205,-4.12478 -7.21221,-4.35399 -0.39172,-0.2292 -1.92172,1.41096 -3.40001,3.6448 l -2.6878,4.06154 2.33929,2.49005 c 5.64945,6.01356 28.41913,16.96988 41.63866,20.0357 21.08058,4.88891 48.95802,5.51482 69.32207,1.55642 z m 109.38941,-2.83559 c 11.44797,-9.17962 20.95586,-17.94507 28.15197,-25.95367 6.00856,-6.68697 6.60737,-7.72277 5.66294,-9.79557 -1.50326,-3.2993 -13.16275,-19.55435 -14.0033,-19.52267 -0.38556,0.0145 -6.93534,5.98446 -14.55506,13.26651 l -13.85403,13.24009 2.20281,3.73349 c 1.21155,2.05342 2.72535,3.73349 3.36401,3.73349 0.63865,0 5.59129,-4.1305 11.00586,-9.17888 10.20712,-9.51681 11.26915,-9.93417 14.05212,-5.52224 0.85486,1.35523 0.0296,2.70855 -4.43317,7.26963 -3.01596,3.08242 -9.48447,8.98086 -14.37446,13.10765 l -8.89091,7.50326 -2.37444,-2.83971 c -1.30594,-1.56184 -3.79382,-4.75221 -5.52862,-7.08971 -1.73479,-2.3375 -3.44369,-4.25 -3.79756,-4.25 -0.35386,0 -1.9079,1.31987 -3.45342,2.93304 l -2.81003,2.93304 2.30388,3.81696 c 4.6506,7.70485 12.33579,18.31696 13.26498,18.31696 0.52571,0 4.15561,-2.56575 8.06643,-5.70167 z m 47.57304,-15.61505 c 0.0533,-1.15988 -5.03845,-7.68328 -5.99711,-7.68328 -0.4385,0 -2.21689,1.7924 -3.95196,3.98311 l -3.15468,3.9831 3.32065,3.98616 3.32065,3.98616 3.21245,-3.71927 c 1.76685,-2.04559 3.22935,-4.08678 3.25,-4.53598 z m -172.09079,-8.22279 c 29.93189,-4.33561 58.30793,-15.59064 85.66278,-33.97716 17.40168,-11.6965 29.17038,-22.32653 43.87434,-39.62929 5.13027,-6.03699 5.78263,-7.35078 7.1195,-14.33797 0.80944,-4.2306 1.45941,-8.21492 1.44437,-8.85404 -0.015,-0.63912 -5.07754,4.03568 -11.25,10.38844 -39.65345,40.81176 -70.95711,59.72648 -119.32311,72.09904 -7.90567,2.02235 -11.35642,2.28072 -30.89954,2.31354 -21.94645,0.0369 -34.66088,-1.29632 -36.20601,-3.79639 -0.37466,-0.60621 -0.71496,-8.5417 -0.75623,-17.63443 -0.0581,-12.79899 -0.49711,-18.11294 -1.94413,-23.53223 -1.02801,-3.85 -2.20751,-7.37789 -2.62111,-7.83975 -0.41361,-0.46186 -1.6905,3.23631 -2.83754,8.21815 -2.66828,11.58889 -6.91615,22.55236 -12.59357,32.50317 -2.47325,4.33486 -4.27157,8.24602 -3.99627,8.69147 0.2753,0.44545 3.11664,2.3991 6.31407,4.34144 7.43406,4.51595 24.48242,10.20941 34.14079,11.40164 11.97258,1.47789 32.35412,1.31268 43.87166,-0.35563 z m -16.87166,-35.65811 c 9.96385,-3.00076 11.51727,-3.71381 18.1566,-8.33427 7.55301,-5.25632 16.04275,-15.60753 20.47804,-24.96811 3.79933,-8.01838 9.17646,-24.8669 10.05308,-31.5 l 0.59472,-4.5 -2.50392,2.29533 c -4.30487,3.94624 -17.82228,12.03625 -25.3411,15.16634 -6.07821,2.53037 -18.31982,6.02819 -29.68742,8.48266 -2.59752,0.56085 -2.75,0.90087 -2.75,6.13242 0,7.13299 -3.39823,23.50848 -6.54447,31.53671 -1.35054,3.44617 -2.45553,6.83851 -2.45553,7.53853 0,1.77018 11.51743,0.70504 20,-1.84961 z m -2.60801,-12.93853 c 0.83013,-2.86548 4.09621,-15.37365 4.94156,-18.92474 0.5308,-2.22978 1.43902,-2.72576 7.02416,-3.8359 3.52799,-0.70126 9.84078,-2.76446 14.02841,-4.58489 5.26785,-2.29003 7.61388,-2.90562 7.61388,-1.99788 0,2.39816 -9.97955,16.27585 -14.85695,20.66025 -4.761,4.27978 -12.42019,8.91858 -17.03946,10.31999 -2.15987,0.65527 -2.32881,0.49371 -1.7116,-1.63683 z m 73.10801,-13.59791 c 13.64917,-4.27129 32.98097,-14.84893 46,-25.16948 10.50965,-8.33129 30.5,-29.36672 30.5,-32.09451 0,-0.49183 -2.54545,-0.0185 -5.65655,1.05191 -12.88322,4.43248 -29.51356,1.44826 -40.61515,-7.28815 -4.51822,-3.55562 -11.95453,-13.80123 -13.80169,-19.01571 -0.73061,-2.0625 -1.59274,-3.75 -1.91584,-3.75 -0.3231,0 -1.34003,4.1625 -2.25984,9.25 -5.485,30.33766 -12.52621,52.79137 -22.4072,71.45431 -2.38905,4.51238 -4.34373,8.48563 -4.34373,8.82946 0,0.84316 4.87124,-0.25466 14.5,-3.26783 z m 5.5,-16.23839 c 0,-0.60897 0.96911,-3.0018 2.15358,-5.31739 2.60363,-5.08997 7.91527,-20.57118 10.40307,-30.32055 l 1.8144,-7.1104 5.35184,4.35913 c 5.95067,4.84689 11.33015,7.82166 18.63397,10.30431 l 4.88024,1.65884 -5.36855,4.83271 c -11.76606,10.59168 -37.86855,25.47581 -37.86855,21.59335 z m -214.1732,10.86466 c -2.38698,-4.57952 -3.73643,-13.89221 -2.01305,-13.89221 0.58752,0 1.34633,0.45 1.68625,1 1.29029,2.08773 2.5,0.86604 2.5,-2.52475 0,-2.72524 -0.51036,-3.72639 -2.25,-4.4137 -1.2375,-0.48892 -3.79993,-2.05278 -5.69428,-3.47525 -1.89435,-1.42246 -3.87096,-2.5863 -4.39246,-2.5863 -1.3118,0 -0.10474,10.40644 1.87845,16.19453 1.31917,3.85012 8.54997,13.80547 10.02723,13.80547 0.21943,0 -0.56454,-1.8485 -1.74214,-4.10779 z m 53.38289,-29.84338 c 17.33585,-6.67544 24.9913,-12.619 30.35953,-23.57064 2.64653,-5.39912 2.93039,-6.94683 2.93058,-15.97819 2.3e-4,-11.55105 -1.56452,-16.01135 -8.25603,-23.5337 -5.73738,-6.44976 -12.55904,-9.87449 -21.71378,-10.90115 -10.63549,-1.19272 -16.18972,0.54892 -21.47705,6.73457 -5.06712,5.92802 -3.87347,6.92749 6.31844,5.29063 17.01683,-2.73296 28.9664,3.58581 31.70211,16.76365 2.41422,11.62922 -2.66616,23.70862 -15.35803,36.51612 -4.5185,4.55967 -9.34046,9.01811 -10.71546,9.90764 -3.59963,2.32872 -2.42641,2.09654 6.20969,-1.22893 z m -30.20969,-6.12536 c 5.81316,-2.1937 8.43887,-3.92347 5.95564,-3.92347 -0.79441,0 -6.37386,-1.44876 -12.3988,-3.21948 -10.36684,-3.04678 -10.76944,-3.26232 -7.50563,-4.01821 1.89683,-0.4393 12.56129,-1.08281 23.69879,-1.43002 l 20.25,-0.63129 v -3.8505 -3.8505 l -11.75,0.0173 c -6.4625,0.01 -15.8,0.42299 -20.75,0.91881 -20.37534,2.04089 -24.73213,2.24848 -24.05075,1.14597 0.36783,-0.59516 1.30493,-1.08211 2.08243,-1.08211 0.77751,0 3.78845,-1.05744 6.69098,-2.34986 10.01225,-4.45819 22.04019,-7.76055 38.14913,-10.47412 l 10.12821,-1.70611 0.30957,-4.2773 0.30956,-4.2773 -5.30956,0.66971 c -11.63337,1.46734 -36.28349,7.78027 -48.05957,12.30812 -1.5125,0.58155 -2.75,0.7884 -2.75,0.45966 0,-0.32873 -0.675,-0.0375 -1.5,0.6472 -0.825,0.68469 -1.49252,0.85229 -1.48338,0.37244 0.0339,-1.78072 18.2607,-13.64437 26.23234,-17.07438 4.53807,-1.95263 8.38065,-3.66061 8.53906,-3.7955 0.6244,-0.53168 -9.56423,-6.50253 -11.09593,-6.50253 -4.19237,0 -25.79803,12.14192 -33.95734,19.08329 -2.62089,2.22967 -5.45436,5.70322 -6.29661,7.71901 -1.39555,3.34001 -1.37876,4.06467 0.18935,8.17071 3.26324,8.54466 15.60055,18.51642 26.5569,21.46488 7.42931,1.9993 11.46305,1.88283 17.81561,-0.51442 z m 86.32643,-15.5219 c 5.75902,-3.79751 7.02061,-7.80131 6.42976,-20.40559 -0.65335,-13.93744 -4.94336,-25.25043 -14.28768,-37.6774 l -3.14417,-4.18141 -4.41217,2.95372 c -2.42669,1.62455 -4.27935,3.45464 -4.11702,4.06687 0.16233,0.61222 1.57907,2.97925 3.14831,5.26006 9.43282,13.71014 11.42835,20.34707 10.80686,35.9426 -0.30294,7.60212 -1.08673,13.75382 -2.09695,16.45835 l -1.61318,4.31876 2.72991,-2.1064 c 1.50144,-1.15852 4.45179,-3.24182 6.55633,-4.62956 z M 663.02784,489.7344 c 9.29342,-4.5145 15.31576,-14.26083 16.03996,-25.9585 0.64574,-10.43043 -1.62741,-16.532 -9.58389,-25.72499 -3.2393,-3.74273 -4.07271,-5.59153 -4.66787,-10.35504 -1.60982,-12.88456 -6.91955,-25.35082 -17.59614,-41.3125 -8.16575,-12.20793 -30.4345,-34.66124 -26.09144,-26.30768 0.50041,0.9625 1.2312,4.39815 1.62398,7.63478 0.62683,5.16528 1.35066,6.63511 5.92015,12.02158 13.72154,16.17484 20.92014,31.72383 24.1174,52.09364 1.26975,8.0896 1.98481,10.28656 3.74298,11.5 8.52749,5.88543 11.75602,11.17597 11.75602,19.26438 0,13.96285 -14.14881,22.81779 -27.06068,16.93575 -7.28041,-3.31661 -10.94566,-8.98422 -10.92955,-16.90047 0.0114,-5.59827 3.66791,-14.26007 7.00713,-16.59895 1.97445,-1.38295 2.15336,-2.11655 1.55635,-6.38164 -2.05827,-14.7045 -10.02789,-33.82479 -19.53309,-46.8628 l -4.72512,-6.48131 -1.81225,4.01884 -1.81224,4.01885 3.68185,7.84589 c 5.36418,11.43089 6.96925,21.37488 6.14209,38.05247 -1.29503,26.11074 -1.18432,30.23921 0.92759,34.58899 7.84532,16.15863 25.55921,22.55359 41.29677,14.90871 z M 536.5115,483.26384 c 27.08623,-8.94833 47.90783,-26.33774 59.0312,-49.30061 2.49419,-5.14897 6.74438,-15.53053 6.74579,-16.47734 2.7e-4,-0.18689 -1.86324,2.06311 -4.14115,5 -6.88984,8.88301 -27.90639,29.09145 -35.35835,33.99879 -13.69476,9.0184 -32.80633,16.73154 -46.5,18.7667 -0.275,0.0409 -0.5,2.80544 -0.5,6.14348 v 6.06917 l 6,-0.65929 c 3.3,-0.36261 9.92513,-1.95601 14.72251,-3.5409 z M 355.02007,472.44849 c 2.63429,-3.57684 10.49526,-6.27418 16.55118,-5.67922 5.59,0.54919 5.43148,-0.52865 -0.52463,-3.56723 -3.31714,-1.69227 -5.17859,-1.97855 -9.68215,-1.48905 -3.06651,0.33332 -9.45359,0.89156 -14.19351,1.24054 l -8.61802,0.63452 1.57835,4.0181 c 0.8681,2.20996 3.82299,6.31343 6.56644,9.11882 l 4.98807,5.10072 0.70131,-3.3772 c 0.38572,-1.85745 1.57055,-4.55745 2.63296,-6 z m 299.03868,-3.67408 c 3.57749,-2.50578 4.51001,-5.07099 3.24111,-8.91578 -1.21393,-3.67824 -4.73268,-6.53294 -8.05261,-6.53294 -3.27016,0 -7.95826,5.28323 -7.95826,8.96853 0,6.36266 7.50217,10.16974 12.76976,6.48019 z M 525.28899,456.61589 c 28.91584,-9.30864 56.76079,-35.04186 71.01825,-65.6323 4.55005,-9.76247 7.45204,-23.69665 6.55758,-31.48688 -0.96969,-8.44545 -5.94443,-19.86145 -12.40267,-28.46156 -6.1793,-8.22866 -17.69598,-20.70946 -19.10969,-20.70946 -2.07583,0 -38.00681,39.38999 -36.92123,40.47557 0.22634,0.22634 1.68903,1.07431 3.25043,1.88437 l 2.83892,1.47285 10.1342,-10.62927 c 5.57382,-5.8461 12.25318,-12.86568 14.84304,-15.59906 l 4.70883,-4.96979 3.09361,3.43267 c 4.92168,5.46107 10.71274,14.25158 13.41681,20.36595 5.80222,13.11985 5.2175,23.40403 -2.18651,38.45669 -10.44307,21.23122 -34.33863,44.98569 -54.24157,53.92133 -12.70665,5.70478 -11.30551,5.3967 -13.28468,2.92106 -0.98157,-1.2278 -3.63815,-4.1244 -5.90351,-6.43688 l -4.11883,-4.20451 -3.82514,2.70451 c -2.10382,1.48748 -3.83475,3.00601 -3.84649,3.37451 -0.0117,0.3685 2.1354,3.80076 4.77142,7.62725 2.63603,3.82649 5.62589,8.80478 6.64415,11.06287 2.10176,4.66086 1.47802,4.64244 14.56308,0.43008 z m -171.77032,-4.20797 c 0.40132,-0.0452 1.70284,-1.99473 2.89227,-4.33223 4.22661,-8.30624 17.84206,-29.36317 23.73022,-36.69988 5.80168,-7.22896 5.91476,-7.48247 3.81341,-8.54901 -1.81723,-0.92234 -2.40686,-0.74191 -3.66558,1.12167 -0.825,1.22145 -4.89579,6.6435 -9.04621,12.04902 -13.30685,17.33088 -23.95379,33.42111 -23.95379,36.20027 0,0.74801 1.03057,1.02697 2.75,0.74437 1.5125,-0.24859 3.07835,-0.48898 3.47968,-0.53421 z M 465.6011,433.58213 c 8.21024,-3.86821 17.50912,-12.46608 24.64231,-22.78461 2.77507,-4.01428 5.04558,-7.71386 5.04558,-8.22131 0,-0.87209 -10.52082,-4.25052 -13.23662,-4.25052 -0.69675,0 -2.33429,2.0122 -3.63897,4.47157 -7.01722,13.22758 -21.24323,22.6866 -34.05888,22.6461 -7.45804,-0.0236 -14.83497,-1.42996 -19.11797,-3.64479 -1.56653,-0.81008 -3.23128,-1.47288 -3.69943,-1.47288 -0.46816,0 -1.78106,2.20092 -2.91756,4.89094 l -2.06636,4.89094 4.7538,2.22655 c 8.01595,3.75448 14.71001,4.94017 26.48199,4.69065 10.04371,-0.21288 11.59221,-0.51217 17.81211,-3.44264 z m -15.81211,-20.13528 c 2.2,-1.0092 5.29105,-3.13682 6.869,-4.72804 3.0412,-3.06678 8.75273,-12.38374 8.17234,-13.33117 -0.18934,-0.30907 -3.71147,-0.41572 -7.82697,-0.237 l -7.48272,0.32496 -0.64454,4.03068 c -0.75799,4.74026 -5.30006,9.82528 -8.76019,9.80736 -1.2798,-0.007 -4.23942,-1.10553 -6.57692,-2.44202 -4.76066,-2.72194 -4.87548,-2.65615 -2.70145,1.54795 3.33175,6.4429 11.27317,8.54953 18.95145,5.02728 z m 81.48747,-6.82564 c -4.736,-8.4329 -8.29415,-12.59999 -15.27922,-17.89413 -8.12022,-6.15449 -19.8133,-11.58195 -32.16273,-14.92866 -9.37745,-2.5413 -10.88459,-2.6698 -26,-2.21671 -15.72238,0.47128 -23.4156,1.94822 -30.88399,5.92909 -3.33274,1.77644 -9.76315,8.11071 -11.35102,11.18132 -3.1686,6.1274 -3.59233,10.43194 -0.76051,7.7257 1.85142,-1.76931 10.67452,-6.26608 16.76971,-8.54683 13.66619,-5.11373 39.15143,-6.72024 53.68029,-3.38383 17.35793,3.98607 31.21242,11.03045 41,20.84662 4.125,4.13705 7.66702,7.42314 7.87115,7.30243 0.20413,-0.12072 -1.09353,-2.82747 -2.88368,-6.015 z m -88.63002,-5.49756 c 0.58949,-0.93612 0.72864,-2.0452 0.30922,-2.46463 -1.06686,-1.06686 -4.09707,1.02701 -4.50748,3.11467 -0.43873,2.23168 2.68848,1.74748 4.19826,-0.65004 z m -53.15403,-18.23734 c 0.58878,-7.10002 1.92942,-8.75887 5.94685,-7.35839 7.00814,2.44305 20.42913,-2.00804 28.50773,-9.45463 7.73142,-7.12658 10.88162,-17.37921 7.89308,-25.68879 -2.05916,-5.72546 -2.07721,-5.70806 14.13812,-13.63218 13.70267,-6.69624 14.28017,-6.71349 14.28017,-0.42663 0,4.70648 -0.58226,5.37863 -6.96937,8.04512 -7.86771,3.28461 -7.91807,3.3486 -7.30548,9.28404 0.33725,3.26756 -0.0744,7.6049 -1.10257,11.61837 -1.92225,7.50329 -1.36685,8.29133 4.75854,6.7518 2.28223,-0.57361 12.47451,-1.07812 22.64951,-1.12113 15.95912,-0.0675 19.87345,0.23916 28.5,2.23247 5.5,1.27086 10.9,2.6894 12,3.15231 1.1,0.46291 4.925,1.85949 8.5,3.10352 3.575,1.24403 10.49875,4.22674 15.38611,6.62825 4.88736,2.4015 9.06739,4.18508 9.28896,3.96351 0.49734,-0.49734 -8.7479,-8.91508 -14.17507,-12.90632 -9.71653,-7.14571 -26.82351,-13.74044 -41,-15.80546 -7.4433,-1.08423 -25.71696,-0.70911 -32.75,0.67229 -2.6266,0.5159 -2.75,0.3631 -2.75,-3.40532 0,-3.91366 0.0485,-3.96316 6.01596,-6.139 7.76997,-2.83307 9.19732,-5.04539 9.78303,-15.16313 0.55584,-9.60182 -1.13589,-16.91132 -3.91401,-16.91132 -3.63939,0 -23.514,7.24253 -30.88498,11.25483 -15.63255,8.50939 -30.22368,20.75855 -35.35174,29.67757 l -1.85175,3.22066 4.85175,-0.72396 c 5.51024,-0.82221 7.59565,-2.14855 11.85174,-7.53777 1.65,-2.0893 3.28742,-3.81956 3.63871,-3.84503 1.08795,-0.0789 1.98475,6.78105 1.33393,10.2037 -1.32622,6.97468 -9.47179,12.75 -17.98275,12.75 -2.96768,0 -6.52872,-0.5162 -7.91342,-1.14711 -2.19657,-1.00083 -2.76672,-0.84142 -4.47082,1.25 -1.07425,1.31841 -3.65492,5.69699 -5.73481,9.73018 l -3.78163,7.33306 3.3409,2.91694 c 1.8375,1.60431 3.67421,2.91693 4.08157,2.91693 0.40736,0 0.94364,-2.44772 1.19174,-5.43938 z m 97.7993,-42.21116 c 3.87757,-0.77552 4.99728,-3.985 4.99728,-14.32393 0,-9.90803 -0.81732,-8.58199 9.87753,-16.02553 2.76583,-1.925 5.04987,-3.8375 5.07563,-4.25 0.0678,-1.08546 -8.58139,-0.92042 -17.6308,0.33642 -4.3023,0.59753 -7.94219,1.20486 -8.08865,1.34962 -0.14646,0.14476 0.24912,3.72857 0.87906,7.96402 1.17672,7.91167 -0.006,20.61445 -2.32706,24.98537 -0.89627,1.6881 -0.71591,1.81387 1.72329,1.20167 1.49838,-0.37607 3.97055,-0.93301 5.49372,-1.23764 z m 16.30293,-3.9694 c 1.33855,-1.03404 5.99861,-4.64141 10.35568,-8.01639 4.35708,-3.37498 12.55936,-8.97391 18.22729,-12.44205 11.06283,-6.76923 11.10086,-6.91068 2.25817,-8.3994 -5.05562,-0.85114 -9.43832,0.73676 -18.14679,6.57481 -5.63434,3.77719 -16.27054,14.34779 -21.43371,21.30153 l -2.8947,3.89856 4.60017,-0.5185 c 2.53009,-0.28518 5.69534,-1.36453 7.03389,-2.39856 z M 744.77486,611.6353 c -9.20536,-11.082 -19.99237,-27.99094 -26.39357,-41.37268 -8.23461,-17.21447 -8.97499,-20.29937 -6.76703,-28.19608 2.14142,-7.65875 6.33307,-28.2998 7.7245,-38.03801 1.60715,-11.24799 2.1933,-39.16688 1.05413,-50.20991 -3.21212,-31.13825 -13.67986,-62.42319 -29.77645,-88.99293 -11.12628,-18.36554 -36.0884,-45.61688 -54.42992,-59.42157 -13.63647,-10.26345 -37.21396,-23.2219 -51.79255,-28.46576 -54.78081,-19.70442 -112.47945,-16.04576 -168.10498,10.65951 -2.475,1.18823 -9.99447,5.4491 -16.70993,9.4686 l -12.20993,7.3082 -4.65419,-1.17194 c -8.0747,-2.03324 -14.42595,-10.43455 -14.42595,-19.08239 0,-8.90599 8.96611,-17.79465 17.9497,-17.79465 4.86338,0 10.77321,2.01386 13.60128,4.63483 l 2.47777,2.29632 4.73563,-2.77959 c 4.84576,-2.84424 21.23658,-10.1393 22.84333,-10.16687 0.49076,-0.008 1.52777,-0.41759 2.30447,-0.90925 1.21165,-0.767 1.20532,-1.1008 -0.0446,-2.35072 -4.1444,-4.14439 -15.56168,-10.79163 -22.5105,-13.1058 -24.11785,-8.03198 -51.1788,3.00692 -61.6721,25.15775 -2.95087,6.22914 -3.18498,7.49511 -3.18498,17.22333 0,9.72822 0.23411,10.99419 3.18498,17.22333 3.36789,7.10944 10.39433,15.4265 15.91533,18.83867 l 3.31327,2.04771 -9.03271,11.19515 c -4.968,6.15732 -11.72472,15.24514 -15.01495,20.19514 -6.7109,10.09624 -19.68549,35.81515 -22.73787,45.07219 -6.67153,20.23292 -11.08356,44.45457 -11.84589,65.03296 l -0.55958,15.10515 -10.81496,0.61878 c -13.37796,0.76543 -18.1579,1.89136 -28.72254,6.76568 -10.44487,4.81907 -19.38357,11.88474 -25.18508,19.90779 l -4.5,6.22315 -0.82075,-14.36285 c -1.00087,-17.51497 0.51808,-46.43124 3.35467,-63.86285 5.76204,-35.40932 24.33809,-82.70327 38.98365,-111.01267 14.11362,-27.64422 31.56341,-50.46638 53.83655,-72.03373 8.75681,-8.43591 19.89064,-16.65195 29.79748,-22.52042 37.37895,-22.142 88.36196,-38.8693 127.8484,-41.94649 33.16557,-2.58461 57.38187,-0.0424 93.5,9.81539 49.04384,13.38568 94.04305,41.50306 129.9496,81.19792 19.76124,21.84615 42.75765,60.22459 56.19377,93.78111 8.50157,21.23257 15.45266,50.03048 18.27665,75.71889 1.85955,16.9155 1.45902,47.35219 -0.8159,62 -4.41366,28.41881 -12.67396,57.45494 -23.09879,81.19556 -5.25268,11.96201 -12.48257,24.97854 -14.18417,25.53686 -0.64836,0.21274 -3.72424,-2.67752 -6.83529,-6.42281 z m 6.87911,-59.47452 c 2.41214,-6.79155 10.7065,-15.23871 16.49302,-16.79685 2.2781,-0.61343 4.142,-1.52992 4.142,-2.03664 0,-0.50673 -1.8338,-1.47074 -4.07512,-2.14225 -5.64629,-1.69167 -11.34257,-7.18228 -15.36706,-14.8122 l -3.40362,-6.45285 -2.46681,5.57789 c -3.56143,8.05304 -8.7316,13.35805 -14.99991,15.39113 -2.85311,0.92539 -5.5226,1.98483 -5.93219,2.35431 -0.40959,0.36949 1.76249,1.52402 4.82685,2.56562 6.68952,2.27384 13.30008,8.99511 15.39846,15.65636 2.40387,7.63102 2.8984,7.6949 5.38438,0.69548 z M 281.30459,460.47021 c 6.39795,-3.40698 7.10334,-13.22589 1.28519,-17.88955 -3.3418,-2.67869 -9.76429,-3.01948 -13.084,-0.69427 -2.64687,1.85394 -5.21679,6.50398 -5.21679,9.4393 0,3.58223 2.98318,8.08736 6.31471,9.53634 4.31968,1.87876 6.59332,1.79551 10.70089,-0.39182 z m 480.06132,-2.0676 c 1.6077,-1.60769 2.97933,-3.63269 3.04808,-4.5 0.47842,-6.03546 0.0408,-7.56493 -3.04808,-10.65384 -2.39722,-2.39722 -3.76423,-2.92308 -7.59879,-2.92308 -3.94119,0 -5.13147,0.48789 -7.57692,3.10576 -3.23326,3.46121 -3.8361,8.57963 -1.5057,12.78417 3.20028,5.774 11.9476,6.92081 16.68141,2.18699 z m -10.37657,-37.5492 c 2.58143,-0.74026 6.29965,-6.31518 6.29965,-9.44541 0,-3.47544 -2.78199,-7.91821 -6.00042,-9.58253 -6.93625,-3.58687 -14.81887,0.68871 -15.69309,8.51204 -0.60359,5.40144 2.00033,9.44323 7.00642,10.87534 3.15823,0.90349 4.12829,0.86192 8.38744,-0.35944 z m -463.31335,-0.48476 c 2.97419,-1.13078 5.613,-5.76549 5.613,-9.85844 0,-3.98742 -3.34266,-7.90729 -7.90978,-9.27564 -5.0907,-1.52521 -10.26066,0.82319 -12.58211,5.71527 -4.25108,8.95848 4.90095,17.21242 14.87889,13.41881 z m 15.35803,-39.74217 c 5.44647,-6.79474 0.80302,-16.33458 -7.91811,-16.26752 -8.53434,0.0656 -13.14644,7.58059 -9.26221,15.09187 3.20808,6.20373 12.63299,6.84867 17.18032,1.17565 z m 437.75848,0.51267 c 2.45843,-2.92168 3.2489,-7.68915 1.87048,-11.28125 -1.06649,-2.77923 -7.32429,-6.40436 -10.2303,-5.92639 -4.09887,0.67417 -6.65416,2.29545 -8.47437,5.37684 -6.29007,10.64823 8.86641,21.29997 16.83419,11.8308 z M 318.76982,352.57569 c 3.42718,-7.50014 7.52227,-11.6131 14.30266,-14.36506 l 5.50788,-2.23548 -4.63289,-2.12538 c -2.54809,-1.16896 -6.01929,-3.45259 -7.71378,-5.07473 -4.06484,-3.89128 -8.9447,-12.52262 -8.9447,-15.82108 0,-4.35438 -1.60312,-2.98179 -3.91144,3.34899 -2.89739,7.94636 -6.26819,11.7195 -13.54556,15.16231 -3.32365,1.57237 -5.23757,2.85921 -4.25316,2.85964 3.07914,10e-4 9.39293,3.79258 12.40835,7.45082 2.40759,2.92082 4.58394,7.77417 6.86086,15.29997 0.63723,2.10624 1.19611,1.46497 3.92178,-4.5 z m 402.76917,-6.24693 c 1.5125,-1.66904 2.75,-4.17487 2.75,-5.56851 0,-6.46651 -6.16447,-11.99814 -12.30093,-11.03811 -6.46534,1.01148 -10.38218,9.4481 -7.22286,15.55755 3.36273,6.5028 11.37733,7.00405 16.77379,1.04907 z m -27.46016,-28.9079 c 4.94523,-2.53892 7.47215,-7.08416 7.56648,-13.61 0.26378,-18.24836 -23.20795,-21.13343 -29.19535,-3.5886 -1.58378,4.64095 -0.0511,9.85064 4.06971,13.8335 5.71522,5.52385 11.27797,6.58992 17.55916,3.3651 z M 654.72651,288.8781 c 2.58522,-7.60558 6.83081,-12.34362 13.96085,-15.5802 l 6.00326,-2.72509 -3.45082,-0.74333 c -5.57207,-1.20027 -12.48135,-6.9207 -15.37669,-12.73089 -1.41577,-2.84108 -2.57412,-5.97723 -2.57412,-6.96924 0,-3.46346 -1.75841,-1.75793 -4.35104,4.22018 -3.45584,7.9685 -8.62018,13.45165 -14.22946,15.10787 -2.43073,0.71771 -4.41781,1.54418 -4.41575,1.83661 0.002,0.29242 1.93391,1.32523 4.29299,2.29511 5.92415,2.4356 11.22746,7.90031 14.42285,14.86179 1.48312,3.23113 2.95976,5.87478 3.28141,5.87478 0.32166,0 1.41809,-2.45142 2.43652,-5.44759 z M 615.7001,260.24896 c 3.7991,-4.51497 3.51848,-9.19368 -0.81111,-13.52327 -5.64651,-5.64651 -12.49778,-4.34986 -15.99874,3.02786 -1.46965,3.09705 -1.49664,3.88676 -0.236,6.90391 1.89466,4.53456 5.18028,6.66823 10.26835,6.66823 3.44958,0 4.64538,-0.54284 6.7775,-3.07673 z M 472.74062,246.91035 c 6.34647,-2.65173 7.61909,-10.23557 2.65071,-15.79616 -2.39795,-2.68376 -3.62279,-3.24305 -7.10234,-3.24305 -3.47955,0 -4.70439,0.55929 -7.10234,3.24305 -3.35771,3.75793 -3.76259,7.93871 -1.19048,12.29293 2.67531,4.52896 7.26804,5.79142 12.74445,3.50323 z m 94.69877,0.33485 c 2.78465,-1.4903 4.96059,-7.11454 4.20812,-10.87691 -1.25342,-6.26708 -10.77962,-10.45675 -15.37227,-6.7608 -4.38231,3.52668 -5.97959,8.90732 -3.86921,13.03394 2.62505,5.13302 9.88833,7.3573 15.03336,4.60377 z m -44.10235,-6.17291 c 6.93535,-4.67373 9.34993,-13.99866 5.36862,-20.73318 -2.9069,-4.91711 -9.78777,-8.26644 -15.66599,-7.62559 -5.87143,0.64011 -9.12436,2.9068 -11.73615,8.17789 -2.43594,4.91622 -2.53128,8.10232 -0.40171,13.42464 3.25731,8.14083 15.09207,11.7048 22.43523,6.75624 z"
       id="path1"
       sodipodi:nodetypes="ssssscssscsssssssssssssssssssssssscsssscssssssscsssssssscscsssscsssssssscsssssssssssccscssssssssssscssssssssssssssssssssssssssssssssscssssscssscssssssssssssscsssssssssssssssssssssssssscsssssssssssssssscssssssscccsssssssssssscsssssssscssscssssscsssssssssscsscsssssssssssssscsssssssscsssssscsssscsssssscccsssssssssssssssssssssssscssssssssssssssssssssssssssssscsscssssssssssssssssssssssssssssccccssssscccsssssssssssssssscssssscsssssssssssssssssscccssssssssssscssssssscsscsssssssssssssscsscsssssscssssssssssssssssssssssscssssssscscsssssssssssssssssssssssssssssssssssssssssssscsssssssscsssssssssscsssssssscsssssssssssscsssscscssssssscsssscssscssssssssssssssssssscssssssssssssssssssssssssssssssssssssssssscssssscssssssssssssssscsssssssssssssssssssssssssssssssss" />
  </g>
</svg>
